# Blender v2.81 (sub 16) OBJ File: ''
# www.blender.org
mtllib milkcarton.mtl
o Cube
v 0.112000 0.144146 -0.100000
v 0.112000 -0.255854 -0.100000
v 0.112000 0.144146 0.100000
v 0.112000 -0.255854 0.100000
v -0.112000 0.144146 -0.100000
v -0.112000 -0.255854 -0.100000
v -0.112000 0.144146 0.100000
v -0.112000 -0.255854 0.100000
v 0.000000 -0.255854 -0.100000
v 0.000000 0.264146 0.100000
v 0.000000 -0.255854 0.100000
v 0.000000 0.264146 -0.100000
v 0.000000 0.324146 0.100000
v 0.000000 0.324146 -0.100000
vt 0.010643 0.897319
vt 0.010643 0.716922
vt 0.231140 0.716922
vt 0.231140 0.897320
vt 0.339743 0.213087
vt 0.339743 0.868408
vt 0.231140 0.213087
vt 0.010643 0.213087
vt 0.339743 0.034162
vt 0.448346 0.034162
vt 0.448346 0.213087
vt 0.675094 0.213087
vt 0.675094 0.716922
vt 0.448346 0.716921
vt 0.783697 0.213087
vt 0.783697 0.868408
vt 0.892300 0.213087
vt 0.892300 0.716921
vt 0.231140 0.034162
vt 0.675094 0.897319
vt 0.448347 0.897319
vt 0.672101 0.980740
vt 0.490769 0.980740
vt 0.490769 0.902236
vt 0.672101 0.902236
vn -0.7311 0.6823 0.0000
vn -0.0000 0.0000 1.0000
vn -1.0000 0.0000 0.0000
vn 0.0000 -1.0000 0.0000
vn 1.0000 0.0000 0.0000
vn 0.0000 0.0000 -1.0000
vn 0.7311 0.6823 0.0000
usemtl Material
s off
f 12/1/1 5/2/1 7/3/1 10/4/1
f 11/5/2 10/6/2 7/3/2 8/7/2
f 8/7/3 7/3/3 5/2/3 6/8/3
f 9/9/4 2/10/4 4/11/4 11/5/4
f 2/12/5 1/13/5 3/14/5 4/11/5
f 9/15/6 12/16/6 1/13/6 2/12/6
f 6/17/6 5/18/6 12/16/6 9/15/6
f 6/19/4 9/9/4 11/5/4 8/7/4
f 4/11/2 3/14/2 10/6/2 11/5/2
f 1/13/7 12/20/7 10/21/7 3/14/7
f 10/22/5 12/23/5 14/24/5 13/25/5
